# xmcd
#
# Track frame offsets: 
#        150
#        36622
#        58457
#        94002
#        128560
#        154005
#        171915
#        204507
#        255502
#
# Disc length: 3842 seconds
#
# Revision: 2
# Processed by: cddbd v1.5.2PL0 Copyright (c) Steve Scherf et al.
# Submitted via: ExactAudioCopy v1.0b3
#
DISCID=7c0f0009
DTITLE=Kenny Drew Trio - Live at the Keystone Korner Tokyo, Vol. 2
DYEAR=1991
DGENRE=Jazz
TTITLE0=Summertime
TTITLE1=Easy Living
TTITLE2=The Days Of Wine And Roses
TTITLE3=You Don't Know What Love Is
TTITLE4=Someday My Prince Will Come
TTITLE5=I Left My Heart In San Francisco
TTITLE6=On Green Dolphin Street
TTITLE7=It Might As Well Be Spring
TTITLE8=Alone Together
EXTD=YEAR: 1998
EXTT0=
EXTT1=
EXTT2=
EXTT3=
EXTT4=
EXTT5=
EXTT6=
EXTT7=
EXTT8=
PLAYORDER=
